<svg xmlns="http://www.w3.org/2000/svg" xmlns:xlink="http://www.w3.org/1999/xlink" width="1080px" height="1080px" style="shape-rendering:geometricPrecision; text-rendering:geometricPrecision; image-rendering:optimizeQuality; fill-rule:evenodd; clip-rule:evenodd"><g><path style="opacity:1" fill="#fefefe" d="M -0.5,-0.5 C 359.5,-0.5 719.5,-0.5 1079.5,-0.5C 1079.5,359.5 1079.5,719.5 1079.5,1079.5C 719.5,1079.5 359.5,1079.5 -0.5,1079.5C -0.5,719.5 -0.5,359.5 -0.5,-0.5 Z"></path></g><g><path style="opacity:1" fill="#304653" d="M 171.5,310.5 C 371.167,310.333 570.834,310.5 770.5,311C 774.275,312.442 777.108,314.942 779,318.5C 813.115,458.368 782.782,582.034 688,689.5C 665.788,713.398 640.955,733.898 613.5,751C 594.751,761.026 574.751,767.026 553.5,769C 425.457,769.993 297.457,769.66 169.5,768C 162.572,765.406 158.072,760.573 156,753.5C 155.333,611.5 155.333,469.5 156,327.5C 156.856,323.456 158.522,319.789 161,316.5C 164.351,314.079 167.851,312.079 171.5,310.5 Z"></path></g><g><path style="opacity:1" fill="#b39f4e" d="M 849.5,532.5 C 848.172,531.493 847.172,530.16 846.5,528.5C 836.16,493.648 825.327,458.982 814,424.5C 813.827,418.984 813.327,413.651 812.5,408.5C 811.867,377.502 807.034,347.168 798,317.5C 797.333,315.5 797.333,313.5 798,311.5C 819.669,311.503 836.669,320.503 849,338.5C 858.617,356.685 864.617,376.018 867,396.5C 869.365,442.911 863.532,488.245 849.5,532.5 Z"></path></g><g><path style="opacity:1" fill="#b39e4d" d="M 885.5,627.5 C 884.234,626.91 882.901,626.41 881.5,626C 881.833,625.667 882.167,625.333 882.5,625C 874.612,603.823 867.946,582.49 862.5,561C 862.645,560.228 862.978,559.561 863.5,559C 860.654,557.6 860.321,556.1 862.5,554.5C 862.145,553.478 861.478,552.811 860.5,552.5C 877.109,503.919 886.109,453.919 887.5,402.5C 894.685,405.847 900.519,410.847 905,417.5C 915.765,434.208 921.765,452.542 923,472.5C 925.734,527.896 913.234,579.562 885.5,627.5 Z"></path></g><g><path style="opacity:1" fill="#c1ae60" d="M 812.5,408.5 C 813.327,413.651 813.827,418.984 814,424.5C 825.327,458.982 836.16,493.648 846.5,528.5C 847.172,530.16 848.172,531.493 849.5,532.5C 848.405,537.785 846.738,542.785 844.5,547.5C 843.347,546.687 843.347,545.687 844.5,544.5C 840.662,542.48 839.495,539.48 841,535.5C 840.667,535.833 840.333,536.167 840,536.5C 838.518,528.437 836.518,520.437 834,512.5C 831.908,509.627 830.908,506.293 831,502.5C 828.697,499.314 827.697,495.981 828,492.5C 826.915,490.627 825.582,488.96 824,487.5C 822.198,477.457 819.698,467.623 816.5,458C 816.833,457.667 817.167,457.333 817.5,457C 815.44,454.988 813.94,452.821 813,450.5C 812.505,448.527 812.338,446.527 812.5,444.5C 812.5,432.5 812.5,420.5 812.5,408.5 Z"></path></g><g><path style="opacity:1" fill="#c9b669" d="M 812.5,444.5 C 812.338,446.527 812.505,448.527 813,450.5C 813.94,452.821 815.44,454.988 817.5,457C 817.167,457.333 816.833,457.667 816.5,458C 819.698,467.623 822.198,477.457 824,487.5C 825.582,488.96 826.915,490.627 828,492.5C 827.697,495.981 828.697,499.314 831,502.5C 830.908,506.293 831.908,509.627 834,512.5C 836.518,520.437 838.518,528.437 840,536.5C 840.333,536.167 840.667,535.833 841,535.5C 839.495,539.48 840.662,542.48 844.5,544.5C 843.347,545.687 843.347,546.687 844.5,547.5C 842.812,554.251 840.812,560.918 838.5,567.5C 837.233,565.689 835.9,563.856 834.5,562C 834.48,554.898 832.647,548.064 829,541.5C 826.457,533.498 824.29,525.331 822.5,517C 820.34,514.883 819.674,512.55 820.5,510C 817.183,503.576 815.016,496.743 814,489.5C 813.5,488.333 812.667,487.5 811.5,487C 812.167,486.667 812.833,486.333 813.5,486C 811.759,483.376 810.592,480.876 810,478.5C 809.505,476.527 809.338,474.527 809.5,472.5C 810.505,463.026 811.505,453.693 812.5,444.5 Z"></path></g><g><path style="opacity:1" fill="#b29e4f" d="M 635.5,483.5 C 633.261,487.376 630.927,491.209 628.5,495C 629.032,497.02 630.365,497.853 632.5,497.5C 618.047,502.997 610.38,513.664 609.5,529.5C 602.431,538.68 596.764,548.347 592.5,558.5C 590.332,554.159 588.832,549.492 588,544.5C 583.649,513.675 596.149,493.508 625.5,484C 628.817,483.502 632.15,483.335 635.5,483.5 Z"></path></g><g><path style="opacity:1" fill="#af9d51" d="M 392.5,533.5 C 392.167,533.5 391.833,533.5 391.5,533.5C 391.5,533.167 391.5,532.833 391.5,532.5C 391.5,525.833 391.5,519.167 391.5,512.5C 391.665,509.482 391.498,506.482 391,503.5C 388.059,507.085 386.059,511.085 385,515.5C 379.829,521.851 375.163,528.518 371,535.5C 370.502,538.482 370.335,541.482 370.5,544.5C 370.5,548.833 370.5,553.167 370.5,557.5C 369.833,546.505 369.5,535.338 369.5,524C 369.353,512.074 369.853,500.241 371,488.5C 371.75,487.874 372.584,487.374 373.5,487C 378.167,486.333 382.833,486.333 387.5,487C 389.667,487.833 391.167,489.333 392,491.5C 392.5,505.496 392.667,519.496 392.5,533.5 Z"></path></g><g><path style="opacity:1" fill="#b29e4e" d="M 512.5,515.5 C 509.448,516.88 507.282,519.214 506,522.5C 505.767,524.78 504.934,526.78 503.5,528.5C 503.463,530.322 503.796,532.322 504.5,534.5C 501.108,528.72 497.941,522.72 495,516.5C 493.744,526.459 493.244,536.459 493.5,546.5C 488.297,556.447 482.797,566.447 477,576.5C 476.503,578.81 476.337,581.143 476.5,583.5C 475.206,582.71 474.039,581.71 473,580.5C 473.215,551.499 473.882,522.499 475,493.5C 475.606,490.452 477.106,487.952 479.5,486C 485.944,485.085 492.277,485.419 498.5,487C 503.564,496.296 508.231,505.796 512.5,515.5 Z"></path></g><g><path style="opacity:1" fill="#cab76c" d="M 635.5,483.5 C 639.702,483.183 643.702,483.517 647.5,484.5C 646.178,484.33 645.011,484.663 644,485.5C 641.959,489.084 639.792,492.584 637.5,496C 638.056,496.383 638.389,496.883 638.5,497.5C 636.5,497.5 634.5,497.5 632.5,497.5C 630.365,497.853 629.032,497.02 628.5,495C 630.927,491.209 633.261,487.376 635.5,483.5 Z"></path></g><g><path style="opacity:1" fill="#af9d51" d="M 286.5,501.5 C 286.649,500.448 286.483,499.448 286,498.5C 285.667,498.833 285.333,499.167 285,499.5C 279.488,507.204 273.988,514.871 268.5,522.5C 267.548,524.045 267.215,525.712 267.5,527.5C 267.5,530.833 267.5,534.167 267.5,537.5C 267.5,538.5 267.5,539.5 267.5,540.5C 264.677,525.531 266.843,511.197 274,497.5C 277.91,491.464 283.41,488.464 290.5,488.5C 288.818,492.828 287.485,497.162 286.5,501.5 Z"></path></g><g><path style="opacity:1" fill="#9b8739" d="M 328.5,579.5 C 328.5,565.833 328.5,552.167 328.5,538.5C 317.5,538.5 306.5,538.5 295.5,538.5C 297.894,534.055 300.56,529.722 303.5,525.5C 301.709,524.83 300.042,524.163 298.5,523.5C 308.167,523.5 317.833,523.5 327.5,523.5C 327.5,513.167 327.5,502.833 327.5,492.5C 326.325,492.719 325.325,492.386 324.5,491.5C 330.265,484.446 336.932,483.612 344.5,489C 346.617,490.731 348.117,492.898 349,495.5C 350.142,510.102 350.642,524.768 350.5,539.5C 350.333,553.167 350.167,566.833 350,580.5C 347.032,583.602 343.366,584.935 339,584.5C 334.312,585.071 330.812,583.404 328.5,579.5 Z"></path></g><g><path style="opacity:1" fill="#d6c378" d="M 809.5,472.5 C 809.338,474.527 809.505,476.527 810,478.5C 810.592,480.876 811.759,483.376 813.5,486C 812.833,486.333 812.167,486.667 811.5,487C 812.667,487.5 813.5,488.333 814,489.5C 815.016,496.743 817.183,503.576 820.5,510C 819.674,512.55 820.34,514.883 822.5,517C 824.29,525.331 826.457,533.498 829,541.5C 832.647,548.064 834.48,554.898 834.5,562C 835.9,563.856 837.233,565.689 838.5,567.5C 835.971,573.086 833.638,578.753 831.5,584.5C 830.603,583.402 829.77,583.402 829,584.5C 822.069,560.373 814.735,536.373 807,512.5C 805.431,508.297 804.598,503.964 804.5,499.5C 805.716,490.281 807.383,481.281 809.5,472.5 Z"></path></g><g><path style="opacity:1" fill="#ebd991" d="M 647.5,484.5 C 655.688,486.111 663.021,489.444 669.5,494.5C 666.23,499.111 663.397,504.111 661,509.5C 660.667,508.5 660.333,507.5 660,506.5C 659.292,507.381 658.458,508.047 657.5,508.5C 652.851,502.006 646.518,498.34 638.5,497.5C 638.389,496.883 638.056,496.383 637.5,496C 639.792,492.584 641.959,489.084 644,485.5C 645.011,484.663 646.178,484.33 647.5,484.5 Z"></path></g><g><path style="opacity:1" fill="#ebd991" d="M 549.5,486.5 C 553.226,486.177 556.893,486.511 560.5,487.5C 547.022,511.457 534.355,535.791 522.5,560.5C 521.5,560.5 520.5,560.5 519.5,560.5C 514.331,555.51 510.664,549.51 508.5,542.5C 508.297,540.61 508.963,539.11 510.5,538C 510.167,537.667 509.833,537.333 509.5,537C 510.833,535.333 512.167,533.667 513.5,532C 513.167,531.667 512.833,531.333 512.5,531C 513.911,528.918 515.578,527.084 517.5,525.5C 518.569,527.969 519.902,530.302 521.5,532.5C 522.651,533.731 523.817,533.731 525,532.5C 532.212,518.743 538.879,504.743 545,490.5C 546.049,488.616 547.549,487.282 549.5,486.5 Z"></path></g><g><path style="opacity:1" fill="#c5b369" d="M 450.5,487.5 C 444.736,497.37 438.736,507.037 432.5,516.5C 432.5,508.167 432.5,499.833 432.5,491.5C 433.353,488.482 435.353,486.649 438.5,486C 442.806,485.088 446.806,485.588 450.5,487.5 Z"></path></g><g><path style="opacity:1" fill="#304653" d="M 632.5,497.5 C 634.5,497.5 636.5,497.5 638.5,497.5C 646.518,498.34 652.851,502.006 657.5,508.5C 662.037,515.447 664.37,523.114 664.5,531.5C 665.069,546.853 659.736,559.686 648.5,570C 645.924,571.456 643.258,572.623 640.5,573.5C 637.391,573.736 634.391,573.403 631.5,572.5C 622.577,569.026 616.577,562.693 613.5,553.5C 610.57,545.776 609.237,537.776 609.5,529.5C 610.38,513.664 618.047,502.997 632.5,497.5 Z"></path></g><g><path style="opacity:1" fill="#998539" d="M 453.5,490.5 C 454.663,512.996 454.83,535.663 454,558.5C 449.546,574.618 439.046,584.118 422.5,587C 415.5,587.667 408.5,587.667 401.5,587C 399.942,586.79 398.609,586.29 397.5,585.5C 398.496,585.586 399.329,585.252 400,584.5C 402.766,579.955 405.766,575.622 409,571.5C 409.47,570.423 409.303,569.423 408.5,568.5C 419.779,569.693 427.279,565.027 431,554.5C 431.168,533.329 431.668,512.329 432.5,491.5C 432.5,499.833 432.5,508.167 432.5,516.5C 432.334,522.509 432.501,528.509 433,534.5C 439.667,523.833 446.333,513.167 453,502.5C 453.499,498.514 453.666,494.514 453.5,490.5 Z"></path></g><g><path style="opacity:1" fill="#cfbd73" d="M 549.5,486.5 C 555.067,485.196 560.734,485.196 566.5,486.5C 562.075,496.426 557.075,506.092 551.5,515.5C 550.662,515.842 550.328,516.508 550.5,517.5C 543.602,531.63 536.435,545.63 529,559.5C 525.89,561.592 522.723,561.925 519.5,560.5C 520.5,560.5 521.5,560.5 522.5,560.5C 534.355,535.791 547.022,511.457 560.5,487.5C 556.893,486.511 553.226,486.177 549.5,486.5 Z"></path></g><g><path style="opacity:1" fill="#ccba6f" d="M 669.5,494.5 C 673.628,497.29 676.628,500.957 678.5,505.5C 674.217,514.429 669.551,523.096 664.5,531.5C 664.37,523.114 662.037,515.447 657.5,508.5C 658.458,508.047 659.292,507.381 660,506.5C 660.333,507.5 660.667,508.5 661,509.5C 663.397,504.111 666.23,499.111 669.5,494.5 Z"></path></g><g><path style="opacity:1" fill="#af9d50" d="M 261.5,534.5 C 259.259,536.928 257.092,539.595 255,542.5C 253.991,544.025 253.491,545.692 253.5,547.5C 252.344,540.011 252.178,532.345 253,524.5C 254.424,517.303 258.091,511.637 264,507.5C 263.41,510.069 262.743,512.735 262,515.5C 261.5,521.825 261.334,528.158 261.5,534.5 Z"></path></g><g><path style="opacity:1" fill="#9a8738" d="M 570.5,492.5 C 572.606,521.643 573.44,550.977 573,580.5C 568.108,584.776 562.608,585.61 556.5,583C 555.299,582.097 554.465,580.931 554,579.5C 552.668,564.533 552.168,549.533 552.5,534.5C 555.667,529.219 558.834,523.886 562,518.5C 563.581,511.346 566.248,504.68 570,498.5C 570.495,496.527 570.662,494.527 570.5,492.5 Z"></path></g><g><path style="opacity:1" fill="#b4a154" d="M 566.5,486.5 C 569.044,487.708 570.378,489.708 570.5,492.5C 570.662,494.527 570.495,496.527 570,498.5C 566.248,504.68 563.581,511.346 562,518.5C 558.834,523.886 555.667,529.219 552.5,534.5C 552.5,533.833 552.5,533.167 552.5,532.5C 552.822,526.642 552.489,520.975 551.5,515.5C 557.075,506.092 562.075,496.426 566.5,486.5 Z"></path></g><g><path style="opacity:1" fill="#e1cf85" d="M 804.5,499.5 C 804.598,503.964 805.431,508.297 807,512.5C 814.735,536.373 822.069,560.373 829,584.5C 829.77,583.402 830.603,583.402 831.5,584.5C 829.063,591.168 826.063,597.502 822.5,603.5C 820.027,599.077 817.86,594.411 816,589.5C 810.186,568.017 804.02,547.017 797.5,526.5C 799.389,517.274 801.722,508.274 804.5,499.5 Z"></path></g><g><path style="opacity:1" fill="#a99648" d="M 450.5,487.5 C 452.5,487.5 453.5,488.5 453.5,490.5C 453.666,494.514 453.499,498.514 453,502.5C 446.333,513.167 439.667,523.833 433,534.5C 432.501,528.509 432.334,522.509 432.5,516.5C 438.736,507.037 444.736,497.37 450.5,487.5 Z"></path></g><g><path style="opacity:1" fill="#cab76a" d="M 286.5,501.5 C 286.675,503.621 286.341,505.621 285.5,507.5C 280.517,515.146 274.517,521.813 267.5,527.5C 267.215,525.712 267.548,524.045 268.5,522.5C 273.988,514.871 279.488,507.204 285,499.5C 285.333,499.167 285.667,498.833 286,498.5C 286.483,499.448 286.649,500.448 286.5,501.5 Z"></path></g><g><path style="opacity:1" fill="#decb81" d="M 285.5,507.5 C 285.5,509.833 285.5,512.167 285.5,514.5C 284.71,515.609 284.21,516.942 284,518.5C 278.262,524.73 272.762,531.064 267.5,537.5C 267.5,534.167 267.5,530.833 267.5,527.5C 274.517,521.813 280.517,515.146 285.5,507.5 Z"></path></g><g><path style="opacity:1" fill="#747656" d="M 551.5,515.5 C 552.489,520.975 552.822,526.642 552.5,532.5C 551.833,527.5 551.167,522.5 550.5,517.5C 550.328,516.508 550.662,515.842 551.5,515.5 Z"></path></g><g><path style="opacity:1" fill="#ddcb80" d="M 391.5,512.5 C 391.5,519.167 391.5,525.833 391.5,532.5C 389.408,532.561 387.908,533.561 387,535.5C 382.866,542.623 378.366,549.456 373.5,556C 372.391,558.047 371.724,560.213 371.5,562.5C 370.549,561.081 370.216,559.415 370.5,557.5C 370.5,553.167 370.5,548.833 370.5,544.5C 371.376,544.631 372.043,544.298 372.5,543.5C 378.435,532.904 384.768,522.57 391.5,512.5 Z"></path></g><g><path style="opacity:1" fill="#9a8738" d="M 684.5,518.5 C 690.118,541.523 684.452,561.357 667.5,578C 661.543,582.486 654.876,585.32 647.5,586.5C 658,566.724 669.333,546.891 681.5,527C 682.939,524.295 683.939,521.462 684.5,518.5 Z"></path></g><g><path style="opacity:1" fill="#d1bf74" d="M 512.5,515.5 C 514.167,518.833 515.833,522.167 517.5,525.5C 515.578,527.084 513.911,528.918 512.5,531C 512.833,531.333 513.167,531.667 513.5,532C 512.167,533.667 510.833,535.333 509.5,537C 509.833,537.333 510.167,537.667 510.5,538C 508.963,539.11 508.297,540.61 508.5,542.5C 506.659,540.151 505.326,537.485 504.5,534.5C 503.796,532.322 503.463,530.322 503.5,528.5C 504.934,526.78 505.767,524.78 506,522.5C 507.282,519.214 509.448,516.88 512.5,515.5 Z"></path></g><g><path style="opacity:1" fill="#cab769" d="M 391.5,512.5 C 384.768,522.57 378.435,532.904 372.5,543.5C 372.043,544.298 371.376,544.631 370.5,544.5C 370.335,541.482 370.502,538.482 371,535.5C 375.163,528.518 379.829,521.851 385,515.5C 386.059,511.085 388.059,507.085 391,503.5C 391.498,506.482 391.665,509.482 391.5,512.5 Z"></path></g><g><path style="opacity:1" fill="#ecda92" d="M 285.5,514.5 C 285.5,517.5 285.5,520.5 285.5,523.5C 288.833,523.5 292.167,523.5 295.5,523.5C 286.406,533.591 278.073,544.258 270.5,555.5C 268.855,550.662 267.855,545.662 267.5,540.5C 267.5,539.5 267.5,538.5 267.5,537.5C 272.762,531.064 278.262,524.73 284,518.5C 284.21,516.942 284.71,515.609 285.5,514.5 Z"></path></g><g><path style="opacity:1" fill="#cbb86d" d="M 295.5,523.5 C 296.5,523.5 297.5,523.5 298.5,523.5C 300.042,524.163 301.709,524.83 303.5,525.5C 300.56,529.722 297.894,534.055 295.5,538.5C 291.958,538.187 288.625,538.521 285.5,539.5C 285.5,543.167 285.5,546.833 285.5,550.5C 281.5,555.167 277.5,559.833 273.5,564.5C 272.302,561.574 271.302,558.574 270.5,555.5C 278.073,544.258 286.406,533.591 295.5,523.5 Z"></path></g><g><path style="opacity:1" fill="#666846" d="M 285.5,539.5 C 288.625,538.521 291.958,538.187 295.5,538.5C 306.5,538.5 317.5,538.5 328.5,538.5C 328.5,552.167 328.5,565.833 328.5,579.5C 327.504,566.344 327.171,553.01 327.5,539.5C 313.5,539.5 299.5,539.5 285.5,539.5 Z"></path></g><g><path style="opacity:1" fill="#cebc72" d="M 261.5,534.5 C 261.704,537.518 262.037,540.518 262.5,543.5C 261.883,543.389 261.383,543.056 261,542.5C 259.622,544.213 257.955,545.547 256,546.5C 254.921,549.063 254.421,551.729 254.5,554.5C 253.532,552.393 253.198,550.059 253.5,547.5C 253.491,545.692 253.991,544.025 255,542.5C 257.092,539.595 259.259,536.928 261.5,534.5 Z"></path></g><g><path style="opacity:1" fill="#eedc94" d="M 391.5,532.5 C 391.5,532.833 391.5,533.167 391.5,533.5C 391.813,540.755 391.48,547.921 390.5,555C 391.167,555.333 391.833,555.667 392.5,556C 389.682,561.158 386.515,565.991 383,570.5C 381.736,572.607 379.903,573.607 377.5,573.5C 374.742,570.322 372.742,566.655 371.5,562.5C 371.724,560.213 372.391,558.047 373.5,556C 378.366,549.456 382.866,542.623 387,535.5C 387.908,533.561 389.408,532.561 391.5,532.5 Z"></path></g><g><path style="opacity:1" fill="#d1bf74" d="M 609.5,529.5 C 609.237,537.776 610.57,545.776 613.5,553.5C 611.439,552.318 609.939,552.985 609,555.5C 605.905,560.689 603.072,566.022 600.5,571.5C 599.542,571.047 598.708,570.381 598,569.5C 595.628,566.09 593.795,562.423 592.5,558.5C 596.764,548.347 602.431,538.68 609.5,529.5 Z"></path></g><g><path style="opacity:1" fill="#ebd991" d="M 797.5,526.5 C 804.02,547.017 810.186,568.017 816,589.5C 817.86,594.411 820.027,599.077 822.5,603.5C 819.341,611.151 815.675,618.484 811.5,625.5C 811.682,623.265 811.015,621.265 809.5,619.5C 809.709,618.914 810.043,618.414 810.5,618C 802.802,596.073 795.802,573.906 789.5,551.5C 791.796,542.948 794.463,534.615 797.5,526.5 Z"></path></g><g><path style="opacity:1" fill="#e7d68e" d="M 262.5,543.5 C 263.715,548.121 264.715,552.787 265.5,557.5C 266.787,562.107 265.62,566.107 262,569.5C 261.329,568.748 260.496,568.414 259.5,568.5C 257.043,564.13 255.376,559.464 254.5,554.5C 254.421,551.729 254.921,549.063 256,546.5C 257.955,545.547 259.622,544.213 261,542.5C 261.383,543.056 261.883,543.389 262.5,543.5 Z"></path></g><g><path style="opacity:1" fill="#baa758" d="M 860.5,552.5 C 861.478,552.811 862.145,553.478 862.5,554.5C 860.321,556.1 860.654,557.6 863.5,559C 862.978,559.561 862.645,560.228 862.5,561C 867.946,582.49 874.612,603.823 882.5,625C 882.167,625.333 881.833,625.667 881.5,626C 882.901,626.41 884.234,626.91 885.5,627.5C 883.403,631.372 881.069,635.039 878.5,638.5C 877.504,638.414 876.671,638.748 876,639.5C 874.627,636.588 873.127,633.754 871.5,631C 871.5,629.667 871.5,628.333 871.5,627C 868.728,619.322 866.228,611.156 864,602.5C 863.535,601.069 862.701,599.903 861.5,599C 861.957,598.586 862.291,598.086 862.5,597.5C 860.205,590.125 857.539,582.958 854.5,576C 855.14,573.629 855.14,571.129 854.5,568.5C 855.929,562.871 857.929,557.537 860.5,552.5 Z"></path></g><g><path style="opacity:1" fill="#9b883c" d="M 285.5,550.5 C 286.727,562.976 289.727,574.976 294.5,586.5C 284.134,582.465 277.134,575.132 273.5,564.5C 277.5,559.833 281.5,555.167 285.5,550.5 Z"></path></g><g><path style="opacity:1" fill="#ccbb74" d="M 251.5,560.5 C 247.226,559.034 244.892,561.034 244.5,566.5C 242.679,560.462 243.679,554.795 247.5,549.5C 248.086,549.709 248.586,550.043 249,550.5C 249.303,553.999 250.136,557.332 251.5,560.5 Z"></path></g><g><path style="opacity:1" fill="#e9d78f" d="M 613.5,553.5 C 616.577,562.693 622.577,569.026 631.5,572.5C 630.192,577.273 627.859,581.439 624.5,585C 622.575,584.865 620.575,584.698 618.5,584.5C 611.078,582.123 605.078,577.79 600.5,571.5C 603.072,566.022 605.905,560.689 609,555.5C 609.939,552.985 611.439,552.318 613.5,553.5 Z"></path></g><g><path style="opacity:1" fill="#f3e199" d="M 789.5,551.5 C 795.802,573.906 802.802,596.073 810.5,618C 810.043,618.414 809.709,618.914 809.5,619.5C 811.015,621.265 811.682,623.265 811.5,625.5C 806.503,636.171 800.503,646.171 793.5,655.5C 787.341,634.869 781.174,614.202 775,593.5C 774.764,591.881 773.931,590.881 772.5,590.5C 778.378,577.511 784.045,564.511 789.5,551.5 Z"></path></g><g><path style="opacity:1" fill="#dbc97f" d="M 492.5,572.5 C 493.336,581.996 489.002,585.996 479.5,584.5C 480.352,581.777 481.519,579.11 483,576.5C 483.667,575.167 484.333,575.167 485,576.5C 487.525,571.921 489.859,567.254 492,562.5C 492.498,565.817 492.665,569.15 492.5,572.5 Z"></path></g><g><path style="opacity:1" fill="#d3c178" d="M 391.5,533.5 C 391.833,533.5 392.167,533.5 392.5,533.5C 392.334,540.508 392.5,547.508 393,554.5C 394.564,558.555 396.731,562.221 399.5,565.5C 396.591,571.73 392.591,577.063 387.5,581.5C 383.397,579.784 380.064,577.117 377.5,573.5C 379.903,573.607 381.736,572.607 383,570.5C 386.515,565.991 389.682,561.158 392.5,556C 391.833,555.667 391.167,555.333 390.5,555C 391.48,547.921 391.813,540.755 391.5,533.5 Z"></path></g><g><path style="opacity:1" fill="#c8b66a" d="M 493.5,546.5 C 493.826,555.349 493.493,564.016 492.5,572.5C 492.665,569.15 492.498,565.817 492,562.5C 489.859,567.254 487.525,571.921 485,576.5C 484.333,575.167 483.667,575.167 483,576.5C 481.519,579.11 480.352,581.777 479.5,584.5C 478.391,584.443 477.391,584.11 476.5,583.5C 476.337,581.143 476.503,578.81 477,576.5C 482.797,566.447 488.297,556.447 493.5,546.5 Z"></path></g><g><path style="opacity:1" fill="#bfad64" d="M 265.5,557.5 C 267.405,561.216 268.739,565.216 269.5,569.5C 269.392,571.783 268.559,573.783 267,575.5C 266.014,576.171 264.847,576.171 263.5,575.5C 261.902,573.302 260.569,570.969 259.5,568.5C 260.496,568.414 261.329,568.748 262,569.5C 265.62,566.107 266.787,562.107 265.5,557.5 Z"></path></g><g><path style="opacity:1" fill="#c9b76c" d="M 631.5,572.5 C 634.391,573.403 637.391,573.736 640.5,573.5C 638.178,577.472 635.845,581.472 633.5,585.5C 630.914,586.48 628.247,586.813 625.5,586.5C 622.848,586.59 620.515,585.924 618.5,584.5C 620.575,584.698 622.575,584.865 624.5,585C 627.859,581.439 630.192,577.273 631.5,572.5 Z"></path></g><g><path style="opacity:1" fill="#e8d68f" d="M 251.5,560.5 C 253.226,564.953 255.226,569.286 257.5,573.5C 256.937,577.311 254.937,579.977 251.5,581.5C 247.457,577.403 245.123,572.403 244.5,566.5C 244.892,561.034 247.226,559.034 251.5,560.5 Z"></path></g><g><path style="opacity:1" fill="#ac994c" d="M 678.5,505.5 C 681.82,509.144 683.82,513.478 684.5,518.5C 683.939,521.462 682.939,524.295 681.5,527C 669.333,546.891 658,566.724 647.5,586.5C 640.025,587.743 632.692,587.743 625.5,586.5C 628.247,586.813 630.914,586.48 633.5,585.5C 635.845,581.472 638.178,577.472 640.5,573.5C 643.258,572.623 645.924,571.456 648.5,570C 659.736,559.686 665.069,546.853 664.5,531.5C 669.551,523.096 674.217,514.429 678.5,505.5 Z"></path></g><g><path style="opacity:1" fill="#b09d50" d="M 399.5,565.5 C 402.406,566.787 405.406,567.787 408.5,568.5C 409.303,569.423 409.47,570.423 409,571.5C 405.766,575.622 402.766,579.955 400,584.5C 399.329,585.252 398.496,585.586 397.5,585.5C 393.703,585.128 390.37,583.794 387.5,581.5C 392.591,577.063 396.591,571.73 399.5,565.5 Z"></path></g><g><path style="opacity:1" fill="#9a883b" d="M 269.5,569.5 C 274.729,579.894 282.729,587.394 293.5,592C 292.5,593 291.5,594 290.5,595C 277.73,597.163 266.397,594.33 256.5,586.5C 258.298,584.888 260.298,583.388 262.5,582C 261.748,581.329 261.414,580.496 261.5,579.5C 264.335,582.165 267.335,584.665 270.5,587C 272.044,588.187 273.711,588.52 275.5,588C 270.623,584.624 266.623,580.457 263.5,575.5C 264.847,576.171 266.014,576.171 267,575.5C 268.559,573.783 269.392,571.783 269.5,569.5 Z"></path></g><g><path style="opacity:1" fill="#c6b366" d="M 854.5,568.5 C 855.14,571.129 855.14,573.629 854.5,576C 857.539,582.958 860.205,590.125 862.5,597.5C 862.291,598.086 861.957,598.586 861.5,599C 862.701,599.903 863.535,601.069 864,602.5C 866.228,611.156 868.728,619.322 871.5,627C 871.5,628.333 871.5,629.667 871.5,631C 873.127,633.754 874.627,636.588 876,639.5C 876.671,638.748 877.504,638.414 878.5,638.5C 876.646,642.221 874.313,645.554 871.5,648.5C 870.153,649.171 868.986,649.171 868,648.5C 861.492,626.463 854.992,604.463 848.5,582.5C 849.988,577.533 851.988,572.866 854.5,568.5 Z"></path></g><g><path style="opacity:1" fill="#c2af65" d="M 257.5,573.5 C 259.192,575.205 260.525,577.205 261.5,579.5C 261.414,580.496 261.748,581.329 262.5,582C 260.298,583.388 258.298,584.888 256.5,586.5C 254.5,585.167 252.833,583.5 251.5,581.5C 254.937,579.977 256.937,577.311 257.5,573.5 Z"></path></g><g><path style="opacity:1" fill="#d0be71" d="M 848.5,582.5 C 854.992,604.463 861.492,626.463 868,648.5C 868.986,649.171 870.153,649.171 871.5,648.5C 868.975,652.896 865.975,656.896 862.5,660.5C 860.983,660.489 859.816,659.823 859,658.5C 853.608,638.993 847.441,619.827 840.5,601C 841.337,599.989 841.67,598.822 841.5,597.5C 843.27,592.167 845.603,587.167 848.5,582.5 Z"></path></g><g><path style="opacity:1" fill="#e4d28a" d="M 772.5,590.5 C 773.931,590.881 774.764,591.881 775,593.5C 781.174,614.202 787.341,634.869 793.5,655.5C 790.882,660.413 787.548,664.746 783.5,668.5C 782.232,667.213 782.565,666.213 784.5,665.5C 778.437,646.812 772.271,628.146 766,609.5C 765.014,610.171 763.847,610.171 762.5,609.5C 766.088,603.325 769.422,596.991 772.5,590.5 Z"></path></g><g><path style="opacity:1" fill="#dbc97e" d="M 841.5,597.5 C 841.67,598.822 841.337,599.989 840.5,601C 847.441,619.827 853.608,638.993 859,658.5C 859.816,659.823 860.983,660.489 862.5,660.5C 859.179,665.152 855.513,669.485 851.5,673.5C 850.127,673.657 848.793,673.49 847.5,673C 848.167,672.667 848.833,672.333 849.5,672C 847.304,667.08 845.304,662.08 843.5,657C 843.833,656.667 844.167,656.333 844.5,656C 842.487,648.255 840.154,640.588 837.5,633C 837.833,632.667 838.167,632.333 838.5,632C 836.22,627.002 834.22,621.835 832.5,616.5C 833.246,615.264 833.579,613.93 833.5,612.5C 835.928,607.307 838.595,602.307 841.5,597.5 Z"></path></g><g><path style="opacity:1" fill="#d8c67d" d="M 762.5,609.5 C 763.847,610.171 765.014,610.171 766,609.5C 772.271,628.146 778.437,646.812 784.5,665.5C 782.565,666.213 782.232,667.213 783.5,668.5C 782.559,670.772 781.226,672.772 779.5,674.5C 778.475,674.897 778.308,675.563 779,676.5C 780.049,675.483 781.216,675.316 782.5,676C 782.167,676.333 781.833,676.667 781.5,677C 786.547,690.307 790.881,703.807 794.5,717.5C 791.833,718.833 789.167,720.167 786.5,721.5C 786.52,718.302 786.853,715.469 787.5,713C 778.468,683.405 769.135,653.905 759.5,624.5C 758.378,623.37 757.044,622.703 755.5,622.5C 757.566,618.034 759.9,613.701 762.5,609.5 Z"></path></g><g><path style="opacity:1" fill="#b39f4e" d="M 903.5,689.5 C 901.52,688.152 900.353,686.152 900,683.5C 898.844,679.582 898.344,675.582 898.5,671.5C 897.5,671.5 896.5,671.5 895.5,671.5C 895.813,668.753 895.48,666.086 894.5,663.5C 893.021,658.605 891.354,653.771 889.5,649C 889.989,647.862 890.322,646.695 890.5,645.5C 895.015,636.974 899.682,628.474 904.5,620C 905.449,619.383 906.282,619.549 907,620.5C 916.616,644.061 915.449,667.061 903.5,689.5 Z"></path></g><g><path style="opacity:1" fill="#cebb70" d="M 755.5,622.5 C 757.044,622.703 758.378,623.37 759.5,624.5C 769.135,653.905 778.468,683.405 787.5,713C 786.853,715.469 786.52,718.302 786.5,721.5C 783.162,722.836 779.829,724.169 776.5,725.5C 775.819,722.269 775.652,718.936 776,715.5C 767.518,688.415 759.351,661.582 751.5,635C 750.756,633.961 749.756,633.461 748.5,633.5C 750.597,629.628 752.931,625.961 755.5,622.5 Z"></path></g><g><path style="opacity:1" fill="#e6d48b" d="M 833.5,612.5 C 833.579,613.93 833.246,615.264 832.5,616.5C 834.22,621.835 836.22,627.002 838.5,632C 838.167,632.333 837.833,632.667 837.5,633C 840.154,640.588 842.487,648.255 844.5,656C 844.167,656.333 843.833,656.667 843.5,657C 845.304,662.08 847.304,667.08 849.5,672C 848.833,672.333 848.167,672.667 847.5,673C 848.793,673.49 850.127,673.657 851.5,673.5C 847.833,677.833 843.833,681.833 839.5,685.5C 837.352,685.611 837.019,684.944 838.5,683.5C 837.273,682.41 836.44,681.076 836,679.5C 833.982,669.427 831.649,659.427 829,649.5C 828.29,648.027 827.124,647.36 825.5,647.5C 825.879,642.703 825.379,638.036 824,633.5C 823.435,638.678 822.602,638.678 821.5,633.5C 825.262,626.302 829.262,619.302 833.5,612.5 Z"></path></g><g><path style="opacity:1" fill="#c4b165" d="M 748.5,633.5 C 749.756,633.461 750.756,633.961 751.5,635C 759.351,661.582 767.518,688.415 776,715.5C 775.652,718.936 775.819,722.269 776.5,725.5C 773.579,726.696 770.579,727.696 767.5,728.5C 759.042,701.29 750.875,673.956 743,646.5C 742.014,647.171 740.847,647.171 739.5,646.5C 742.747,642.341 745.747,638.008 748.5,633.5 Z"></path></g><g><path style="opacity:1" fill="#b29f52" d="M 771.5,767.5 C 768.518,767.963 765.518,768.296 762.5,768.5C 762.918,767.778 763.584,767.278 764.5,767C 755.006,736.516 745.506,706.016 736,675.5C 734.202,670.322 733.202,664.989 733,659.5C 731.667,660.167 730.667,661.167 730,662.5C 729.617,661.944 729.117,661.611 728.5,661.5C 730.885,659.116 732.885,656.45 734.5,653.5C 735.847,652.972 737.181,652.805 738.5,653C 738.167,653.333 737.833,653.667 737.5,654C 748.281,691.802 759.615,729.635 771.5,767.5 Z"></path></g><g><path style="opacity:1" fill="#f2e099" d="M 821.5,633.5 C 822.602,638.678 823.435,638.678 824,633.5C 825.379,638.036 825.879,642.703 825.5,647.5C 827.124,647.36 828.29,648.027 829,649.5C 831.649,659.427 833.982,669.427 836,679.5C 836.44,681.076 837.273,682.41 838.5,683.5C 837.019,684.944 837.352,685.611 839.5,685.5C 830.721,694.278 821.055,701.945 810.5,708.5C 806.575,694.848 802.575,680.848 798.5,666.5C 799.444,664.863 798.777,663.863 796.5,663.5C 805.776,654.279 814.109,644.279 821.5,633.5 Z"></path></g><g><path style="opacity:1" fill="#bca95a" d="M 890.5,645.5 C 890.322,646.695 889.989,647.862 889.5,649C 891.354,653.771 893.021,658.605 894.5,663.5C 895.48,666.086 895.813,668.753 895.5,671.5C 896.5,671.5 897.5,671.5 898.5,671.5C 898.344,675.582 898.844,679.582 900,683.5C 900.353,686.152 901.52,688.152 903.5,689.5C 901.416,693.336 899.083,697.003 896.5,700.5C 895.206,699.71 894.039,698.71 893,697.5C 889.283,686.434 885.783,674.934 882.5,663C 882.484,660.695 883.484,659.028 885.5,658C 884.244,657.583 883.577,656.75 883.5,655.5C 885.846,652.129 888.179,648.796 890.5,645.5 Z"></path></g><g><path style="opacity:1" fill="#a69344" d="M 762.5,768.5 C 758.5,768.5 754.5,768.5 750.5,768.5C 741.78,739.836 732.946,711.17 724,682.5C 723.257,680.559 723.424,678.726 724.5,677C 722.926,676.664 721.592,675.831 720.5,674.5C 719.378,675.63 718.044,676.297 716.5,676.5C 720.5,671.5 724.5,666.5 728.5,661.5C 729.117,661.611 729.617,661.944 730,662.5C 730.667,661.167 731.667,660.167 733,659.5C 733.202,664.989 734.202,670.322 736,675.5C 745.506,706.016 755.006,736.516 764.5,767C 763.584,767.278 762.918,767.778 762.5,768.5 Z"></path></g><g><path style="opacity:1" fill="#cab76a" d="M 883.5,655.5 C 883.577,656.75 884.244,657.583 885.5,658C 883.484,659.028 882.484,660.695 882.5,663C 885.783,674.934 889.283,686.434 893,697.5C 894.039,698.71 895.206,699.71 896.5,700.5C 892.205,706.463 887.205,711.796 881.5,716.5C 881.414,715.504 881.748,714.671 882.5,714C 880.875,713.147 880.542,712.147 881.5,711C 878.703,703.355 876.537,695.522 875,687.5C 873.372,684.409 871.872,681.243 870.5,678C 870.833,677.667 871.167,677.333 871.5,677C 870.692,676.692 870.025,676.192 869.5,675.5C 870.167,675.167 870.833,674.833 871.5,674.5C 871.137,673.817 870.804,673.15 870.5,672.5C 875.087,666.975 879.421,661.308 883.5,655.5 Z"></path></g><g><path style="opacity:1" fill="#e2cf87" d="M 796.5,663.5 C 798.777,663.863 799.444,664.863 798.5,666.5C 802.575,680.848 806.575,694.848 810.5,708.5C 805.167,711.5 799.833,714.5 794.5,717.5C 790.881,703.807 786.547,690.307 781.5,677C 781.833,676.667 782.167,676.333 782.5,676C 781.216,675.316 780.049,675.483 779,676.5C 778.308,675.563 778.475,674.897 779.5,674.5C 785.928,672.083 791.595,668.417 796.5,663.5 Z"></path></g><g><path style="opacity:1" fill="#9c8738" d="M 750.5,768.5 C 699.162,768.833 647.829,768.5 596.5,767.5C 642.813,745.524 682.813,715.19 716.5,676.5C 718.044,676.297 719.378,675.63 720.5,674.5C 721.592,675.831 722.926,676.664 724.5,677C 723.424,678.726 723.257,680.559 724,682.5C 732.946,711.17 741.78,739.836 750.5,768.5 Z"></path></g><g><path style="opacity:1" fill="#d6c378" d="M 870.5,672.5 C 870.804,673.15 871.137,673.817 871.5,674.5C 870.833,674.833 870.167,675.167 869.5,675.5C 870.025,676.192 870.692,676.692 871.5,677C 871.167,677.333 870.833,677.667 870.5,678C 871.872,681.243 873.372,684.409 875,687.5C 876.537,695.522 878.703,703.355 881.5,711C 880.542,712.147 880.875,713.147 882.5,714C 881.748,714.671 881.414,715.504 881.5,716.5C 879.833,718.833 877.833,720.833 875.5,722.5C 873.891,722.906 872.557,722.906 871.5,722.5C 871.709,721.914 872.043,721.414 872.5,721C 867.01,709.027 863.01,696.527 860.5,683.5C 863.862,679.808 867.195,676.141 870.5,672.5 Z"></path></g><g><path style="opacity:1" fill="#e1cf85" d="M 860.5,683.5 C 863.01,696.527 867.01,709.027 872.5,721C 872.043,721.414 871.709,721.914 871.5,722.5C 872.557,722.906 873.891,722.906 875.5,722.5C 871.746,726.548 867.413,729.882 862.5,732.5C 860.665,731.878 859.498,730.544 859,728.5C 856.146,717.753 852.979,707.087 849.5,696.5C 849.818,695.353 850.484,694.519 851.5,694C 851.272,693.601 850.938,693.435 850.5,693.5C 853.5,689.833 856.833,686.5 860.5,683.5 Z"></path></g><g><path style="opacity:1" fill="#f1df97" d="M 850.5,693.5 C 850.938,693.435 851.272,693.601 851.5,694C 850.484,694.519 849.818,695.353 849.5,696.5C 852.979,707.087 856.146,717.753 859,728.5C 859.498,730.544 860.665,731.878 862.5,732.5C 851.47,740.687 839.47,747.353 826.5,752.5C 826.489,750.983 825.823,749.816 824.5,749C 825.634,747.984 825.301,747.317 823.5,747C 824.833,746.333 824.833,745.667 823.5,745C 824.167,744.667 824.833,744.333 825.5,744C 824.333,743.5 823.5,742.667 823,741.5C 820.837,733.173 818.004,725.173 814.5,717.5C 827.18,710.495 839.18,702.495 850.5,693.5 Z"></path></g><g><path style="opacity:1" fill="#d1bf75" d="M 794.5,725.5 C 796.233,726.008 796.566,726.841 795.5,728C 796.448,728.483 797.448,728.649 798.5,728.5C 801.297,738.892 804.297,749.225 807.5,759.5C 801.466,761.192 795.466,762.859 789.5,764.5C 789.511,762.983 790.177,761.816 791.5,761C 790.667,760.167 789.833,759.333 789,758.5C 786.473,749.721 783.639,741.054 780.5,732.5C 781.639,730.604 780.973,729.604 778.5,729.5C 783.741,728.19 789.074,726.856 794.5,725.5 Z"></path></g><g><path style="opacity:1" fill="#e5d38b" d="M 814.5,717.5 C 818.004,725.173 820.837,733.173 823,741.5C 823.5,742.667 824.333,743.5 825.5,744C 824.833,744.333 824.167,744.667 823.5,745C 824.833,745.667 824.833,746.333 823.5,747C 825.301,747.317 825.634,747.984 824.5,749C 825.823,749.816 826.489,750.983 826.5,752.5C 820.239,755.032 813.905,757.365 807.5,759.5C 804.297,749.225 801.297,738.892 798.5,728.5C 797.448,728.649 796.448,728.483 795.5,728C 796.566,726.841 796.233,726.008 794.5,725.5C 801.011,722.658 807.678,719.991 814.5,717.5 Z"></path></g><g><path style="opacity:1" fill="#bca95c" d="M 739.5,646.5 C 740.847,647.171 742.014,647.171 743,646.5C 750.875,673.956 759.042,701.29 767.5,728.5C 765.488,729.228 763.488,730.062 761.5,731C 762.667,731.167 763.833,731.333 765,731.5C 769.48,730.637 773.98,729.97 778.5,729.5C 780.973,729.604 781.639,730.604 780.5,732.5C 783.639,741.054 786.473,749.721 789,758.5C 789.833,759.333 790.667,760.167 791.5,761C 790.177,761.816 789.511,762.983 789.5,764.5C 783.504,765.499 777.504,766.499 771.5,767.5C 759.615,729.635 748.281,691.802 737.5,654C 737.833,653.667 738.167,653.333 738.5,653C 737.181,652.805 735.847,652.972 734.5,653.5C 736.412,651.343 738.079,649.009 739.5,646.5 Z"></path></g></svg>