<svg xmlns="http://www.w3.org/2000/svg" xmlns:xlink="http://www.w3.org/1999/xlink" width="2250px" height="2250px" style="shape-rendering:geometricPrecision; text-rendering:geometricPrecision; image-rendering:optimizeQuality; fill-rule:evenodd; clip-rule:evenodd"><g><path style="opacity:0.997" fill="#01bbbc" d="M 388.5,853.5 C 853.833,853.333 1319.17,853.5 1784.5,854C 1796.26,855.79 1805.76,861.29 1813,870.5C 1859,945.167 1905,1019.83 1951,1094.5C 1962.13,1114.93 1960.46,1134.27 1946,1152.5C 1881.96,1225.54 1818.29,1298.87 1755,1372.5C 1745.71,1384.73 1733.54,1392.23 1718.5,1395C 1254.83,1395.67 791.167,1395.67 327.5,1395C 306.63,1391.46 294.464,1379.3 291,1358.5C 290.502,1351.47 290.835,1344.47 292,1337.5C 308.854,1190.48 325.854,1043.48 343,896.5C 349.646,873.017 364.813,858.684 388.5,853.5 Z"></path></g><g><path style="opacity:1" fill="#fefefe" d="M 478.5,1312.5 C 457.167,1312.5 435.833,1312.5 414.5,1312.5C 414.5,1311.5 414.5,1310.5 414.5,1309.5C 426.419,1208.48 438.586,1107.48 451,1006.5C 471.935,1004.52 493.101,1003.85 514.5,1004.5C 513.42,1010.13 512.92,1015.8 513,1021.5C 538.936,1001.31 568.103,994.476 600.5,1001C 621.893,1006.27 638.059,1018.44 649,1037.5C 662.978,1066.38 667.312,1096.71 662,1128.5C 656.252,1169.87 636.418,1202.37 602.5,1226C 569.075,1245.39 534.742,1247.39 499.5,1232C 496.073,1230.2 492.906,1228.04 490,1225.5C 485.755,1254.46 481.922,1283.46 478.5,1312.5 Z"></path></g><g><path style="opacity:1" fill="#fefefe" d="M 785.5,998.5 C 805.383,997.462 825.049,998.962 844.5,1003C 876.896,1012.91 895.396,1034.74 900,1068.5C 901.392,1078.8 901.726,1089.13 901,1099.5C 895.358,1145.16 889.858,1190.82 884.5,1236.5C 863.5,1236.5 842.5,1236.5 821.5,1236.5C 822.17,1229.15 822.67,1221.82 823,1214.5C 796.87,1238.2 766.37,1246.7 731.5,1240C 691.136,1228.79 672.97,1202.29 677,1160.5C 682.516,1133.31 698.016,1114.15 723.5,1103C 738.187,1096.44 753.52,1092.11 769.5,1090C 791.804,1088.6 814.137,1088.1 836.5,1088.5C 836.999,1072.17 829.665,1061 814.5,1055C 802.481,1050.91 790.148,1049.58 777.5,1051C 752.986,1053.39 729.819,1060.23 708,1071.5C 708.897,1053.82 711.064,1036.32 714.5,1019C 724.311,1013.5 734.645,1009.17 745.5,1006C 758.9,1003.15 772.234,1000.65 785.5,998.5 Z"></path></g><g><path style="opacity:1" fill="#fefefe" d="M 1356.5,1236.5 C 1334.47,1237.16 1312.81,1236.49 1291.5,1234.5C 1297.4,1182.44 1303.73,1130.44 1310.5,1078.5C 1308.23,1052.67 1294.56,1043.84 1269.5,1052C 1259.44,1055.53 1250.11,1060.36 1241.5,1066.5C 1233.68,1123.09 1226.34,1179.76 1219.5,1236.5C 1197.83,1236.5 1176.17,1236.5 1154.5,1236.5C 1164.09,1159.48 1173.75,1082.48 1183.5,1005.5C 1203.83,1005.5 1224.17,1005.5 1244.5,1005.5C 1243.76,1012.18 1243.26,1018.84 1243,1025.5C 1262.74,1011.58 1284.58,1002.75 1308.5,999C 1331.76,996.304 1351.26,1003.47 1367,1020.5C 1369,1023.83 1371,1027.17 1373,1030.5C 1394.44,1013.87 1418.61,1003.37 1445.5,999C 1463.87,997.165 1480.54,1001.5 1495.5,1012C 1508.86,1024.74 1515.2,1040.41 1514.5,1059C 1507.87,1118.54 1500.87,1178.04 1493.5,1237.5C 1471.83,1237.5 1450.17,1237.5 1428.5,1237.5C 1434.26,1184.43 1440.59,1131.43 1447.5,1078.5C 1446.31,1055.14 1434.31,1045.97 1411.5,1051C 1398.38,1054.47 1386.88,1060.64 1377,1069.5C 1370.21,1125.18 1363.38,1180.85 1356.5,1236.5 Z"></path></g><g><path style="opacity:1" fill="#fefefe" d="M 1647.5,999.5 C 1732.81,994.309 1773.64,1034.31 1770,1119.5C 1769.26,1125.93 1768.1,1132.26 1766.5,1138.5C 1713.17,1139.17 1659.83,1139.83 1606.5,1140.5C 1614.83,1165.04 1631.83,1179.87 1657.5,1185C 1689.96,1189.4 1720.46,1183.57 1749,1167.5C 1748,1185.49 1746.67,1203.49 1745,1221.5C 1727.44,1232.57 1708.28,1239.07 1687.5,1241C 1658.66,1244.65 1630.66,1241.32 1603.5,1231C 1561.48,1211.78 1539.48,1178.95 1537.5,1132.5C 1537.3,1104.29 1544.14,1077.96 1558,1053.5C 1579.59,1022.11 1609.43,1004.11 1647.5,999.5 Z"></path></g><g><path style="opacity:1" fill="#bfeded" d="M 989.5,1005.5 C 965.328,1005.17 941.328,1005.5 917.5,1006.5C 916.957,1006.44 916.624,1006.11 916.5,1005.5C 940.997,1004.17 965.33,1004.17 989.5,1005.5 Z"></path></g><g><path style="opacity:1" fill="#7fdcdd" d="M 1095.5,1005.5 C 1119,1004.17 1142.67,1004.17 1166.5,1005.5C 1166.38,1006.11 1166.04,1006.44 1165.5,1006.5C 1142.34,1005.5 1119.01,1005.17 1095.5,1005.5 Z"></path></g><g><path style="opacity:1" fill="#fefefe" d="M 989.5,1005.5 C 1001.5,1058.52 1013.67,1111.52 1026,1164.5C 1049.27,1111.52 1072.44,1058.52 1095.5,1005.5C 1119.01,1005.17 1142.34,1005.5 1165.5,1006.5C 1115.62,1108.6 1065.45,1210.6 1015,1312.5C 991.239,1313.66 967.406,1313.83 943.5,1313C 956.245,1287.68 968.578,1262.18 980.5,1236.5C 959.497,1159.82 938.497,1083.15 917.5,1006.5C 941.328,1005.5 965.328,1005.17 989.5,1005.5 Z"></path></g><g><path style="opacity:1" fill="#07bbbc" d="M 543.5,1050.5 C 573.521,1049.35 590.688,1063.68 595,1093.5C 598.009,1117.45 594.009,1140.12 583,1161.5C 563.581,1190.57 537.414,1198.74 504.5,1186C 501.705,1184.7 499.039,1183.2 496.5,1181.5C 496.167,1179.5 495.833,1177.5 495.5,1175.5C 499.782,1139.14 504.282,1102.81 509,1066.5C 519.126,1058.02 530.626,1052.68 543.5,1050.5 Z"></path></g><g><path style="opacity:1" fill="#09bbbc" d="M 1655.5,1050.5 C 1690.26,1048.6 1706.6,1064.93 1704.5,1099.5C 1671.83,1099.5 1639.17,1099.5 1606.5,1099.5C 1611.98,1072.14 1628.31,1055.81 1655.5,1050.5 Z"></path></g><g><path style="opacity:1" fill="#08bbbc" d="M 786.5,1134.5 C 801.5,1134.5 816.5,1134.5 831.5,1134.5C 830.493,1147.26 828.826,1159.92 826.5,1172.5C 806.426,1188.35 783.76,1194.52 758.5,1191C 745.192,1185.55 739.859,1175.72 742.5,1161.5C 747.164,1150.01 755.497,1142.51 767.5,1139C 773.89,1137.16 780.224,1135.66 786.5,1134.5 Z"></path></g><g><path style="opacity:1" fill="#7fdcdd" d="M 1291.5,1234.5 C 1312.81,1236.49 1334.47,1237.16 1356.5,1236.5C 1334.67,1237.5 1312.67,1237.83 1290.5,1237.5C 1290.26,1236.21 1290.6,1235.21 1291.5,1234.5 Z"></path></g><g><path style="opacity:1" fill="#bdeded" d="M 414.5,1309.5 C 414.5,1310.5 414.5,1311.5 414.5,1312.5C 435.833,1312.5 457.167,1312.5 478.5,1312.5C 457.006,1313.5 435.34,1313.83 413.5,1313.5C 413.232,1311.9 413.566,1310.57 414.5,1309.5 Z"></path></g></svg>